<svg xmlns="http://www.w3.org/2000/svg" xmlns:xlink="http://www.w3.org/1999/xlink" width="80" height="80" viewBox="0 0 80 80">
  <defs>
    <clipPath id="clip-path">
      <rect id="mask" width="80" height="80" fill="none"/>
    </clipPath>
  </defs>
  <g id="ico_52_star" clip-path="url(#clip-path)">
    <g id="path" transform="translate(0.001 -0.002)" fill="none">
      <path d="M40,79.647h0A40.115,40.115,0,0,0,0,40,40.047,40.047,0,0,0,40,0a39.743,39.743,0,0,0,11.73,28.273A39.729,39.729,0,0,0,80,40,40.117,40.117,0,0,0,40,79.647Z" stroke="none"/>
      <path d="M 39.99879455566406 71.00603485107422 C 43.4715690612793 55.6430549621582 55.63562774658203 43.48999786376953 70.98135375976562 40.00975799560547 C 63.48451995849609 38.32980346679688 56.59660339355469 34.55597305297852 51.02134323120117 28.98047065734863 C 45.45054244995117 23.40853118896484 41.67806625366211 16.52519226074219 39.9958381652832 9.034021377563477 C 36.52425765991211 24.41156578063965 24.3856315612793 36.54388046264648 9.003828048706055 40.00554275512695 C 24.35700416564941 43.48001861572266 36.52624893188477 55.63465881347656 39.99879455566406 71.00603485107422 M 40.00016403198242 79.64714050292969 L 39.99715423583984 79.64714050292969 C 39.80607604980469 57.78775787353516 21.86344146728516 40.00260543823242 -2.634684278746136e-06 40.00260543823242 C 22.05778694152832 40.00000381469727 39.99869918823242 22.05599212646484 39.99869918823242 3.58479815076862e-06 C 40.00024032592773 10.66797065734863 44.16496276855469 20.70833778381348 51.72851943969727 28.2734375 C 59.29199600219727 35.83723831176758 69.33244323730469 40.00260543823242 80.00032806396484 40.00260543823242 C 58.13273239135742 40.00521469116211 40.19124221801758 57.78905868530273 40.00016403198242 79.64714050292969 Z" stroke="none" fill="#121212"/>
    </g>
  </g>
</svg>
