<svg xmlns="http://www.w3.org/2000/svg" width="43.063" height="34.45" viewBox="0 0 43.063 34.45">
  <g id="ico_lip_color03" transform="translate(-183.999 -402.117)">
    <path id="color" d="M93.952,127.6c-.04.021,3.684-3.764,4.348-5.1a53.376,53.376,0,0,0,3.311-8.38c.863-2.877,1.845-8.823,1.845-8.823.127-1.1.122-2.3-.87-3a5.942,5.942,0,0,0-3.372-.637l-10.224-.173a45.462,45.462,0,0,0-8.79.24,9.641,9.641,0,0,0-6.105,3.663,25.825,25.825,0,0,1-2.35,2.846,5.321,5.321,0,0,1-3.844,1.439,7.277,7.277,0,0,0-3.82.631,6.425,6.425,0,0,0-2.277,2.713,13.5,13.5,0,0,0-1.185,7.787c6.128,14.308,1.138,6.846,5.527,10.066,4.405,3.233,13.561,6.119,19.126,4.515,5.1-1.471,8.156-6.316,10.574-10.708,2.973-5.4,5.791-7.81,7.06-13.891q.234-1.118.391-2.25a7.974,7.974,0,0,0,.226-2.188" transform="translate(123.51 300.726)" fill="#9c2d40"/>
  </g>
</svg>
