<svg xmlns="http://www.w3.org/2000/svg" width="42" height="17" viewBox="0 0 42 17">
  <g id="ico_lip_color06" transform="translate(-51.473 2)">
    <path id="path" d="M8.867,14.115l-.059.008L8.7,14.068C7.684,13.787,7.09,13.6,7.09,13.6l.6-.072C5.832,12.482,2.484,10.279,4.563,9c-.6-.073-1.131-.165-1.6-.265.67-.029,1.652-.081,2.828-.214A15.062,15.062,0,0,1,8.3,8.145a23.625,23.625,0,0,0,7.58-2.737c5.834-3.462,7.689-4.355,10.08-4.578.473-.047,1.545-.244,1.545-.244,4.5-1.277,6.2-.3,9.586,1.319A11.214,11.214,0,0,1,42,6.95c-5.891-3.115-15.709.857-15.709.857-3.154-.708-3.318-.984-10.443.366.99.054,2.053.125,3.2.215,4.064-.472,8.934-.343,14.436-1.749,11.236-1.409,8.215,2.54,7.928,2.892l.051-.006s-2.621,4.942-10.477,6.982A18.744,18.744,0,0,1,26.354,17C20.129,17,12.318,15.063,8.867,14.115ZM0,7.806a18.467,18.467,0,0,0,2.959.933c-.455.02-.762.03-.891.048Z" transform="translate(51.473 -2)" fill="#9c2d40"/>
  </g>
</svg>
