<svg xmlns="http://www.w3.org/2000/svg" width="23.749" height="20" viewBox="0 0 23.749 20">
  <g id="ico_lip_color02" transform="translate(-55.25 -41)">
    <path id="path" d="M510.766,460.062h-.008a.678.678,0,0,1,.016-1.357c2.147-1.38,22.174-9.013-.657.241-.351.148,23.246-9.9,22.88-8.648s.081,4.568-.827,5.5a9.889,9.889,0,0,1-3.181,2.137,17.681,17.681,0,0,1-3.58,1.1c-1.21.249-2.417.413-3.615.569s-2.637.163-3.844.271c-2.413.22-4.73.154-7.152.2,3.966-1.266,4.631-.981,6.984-.347.585.16,1.69,1.64,2.209,1.976a25.57,25.57,0,0,1,3.507,2.216c.723,1.018,1.737,1.8,1.841,3.088a6.105,6.105,0,0,1,.009.982,5.979,5.979,0,0,1-.187.966c-.177.628-.909-1.276-1.282-.746a4.174,4.174,0,0,1-2.7,1.8,3.025,3.025,0,0,1-1.667.128,4.946,4.946,0,0,1-1.881-.742c-1.107-.713-8.441-7.361-8.381-7.855,1.376-.018.9-2.331,1.239-2.431s10.782,2.649,11.7,3.508c.112.109.233.21.337.327l.314.351a4.237,4.237,0,0,1,.306.367c.1.128.193.262.281.4.353.544,1.005.9,1.192,1.507a7.276,7.276,0,0,1,.341,3.545" transform="translate(-454.002 -409.19)" fill="#9c2d40"/>
  </g>
</svg>
