<svg xmlns="http://www.w3.org/2000/svg" width="49.023" height="25.056" viewBox="0 0 49.023 25.056">
  <g id="ico_lip_color01" transform="translate(-380.999 -346.117)">
    <path id="color" d="M163.079,196.069c-2.039.507-5.293.59-10.566.137-7.837-.674-12.632-3.478-13.5-7.9a4.6,4.6,0,0,1,1.016-3.875,12.873,12.873,0,0,1-7.087-3.9,2.063,2.063,0,0,1-.558-2.076c.389-.961,1.191-1.071,2.119-1.2,1.395-.192,3.991-.549,8.857-3.705,5.414-3.51,8.136-1.86,10.324-.534a5.966,5.966,0,0,0,2.974,1.172,6.321,6.321,0,0,0,3.014-1.165c2.283-1.332,5.124-2.991,10.548.527,4.866,3.157,7.462,3.513,8.857,3.705.927.127,1.729.238,2.118,1.2a1.922,1.922,0,0,1-.348,1.869c-1.194,1.644-4.839,3.057-9.288,2.812a21.1,21.1,0,0,1-5.336-1.072c-2.267-.654-4.389-1.166-6.213-.159a6.607,6.607,0,0,1-6.325,0c-1.633-.843-6.739-.876-8.938,1.009a29.829,29.829,0,0,1,8,.623c1.448.266,1.578,1.546,2.92,1.546,1.878,0,3.238,1.535,6.032,1.615,4.67.6,11.379-.729,11.983,2.179,0,4.1-4.452,6.116-9.752,6.992C163.525,195.933,165.474,195.518,163.079,196.069ZM179.819,179a33.985,33.985,0,0,1-10.413-4.225C164.753,171.756,179.856,179.089,179.819,179Z" transform="translate(248.717 174.671)" fill="#9c2d40"/>
  </g>
</svg>
