<svg xmlns="http://www.w3.org/2000/svg" width="57.821" height="25.092" viewBox="0 0 57.821 25.092">
  <g id="ico_lip_color04" transform="translate(157 -60.001)">
    <path id="path" d="M113.983,115.921c-4.176-3.316-3.84-5.066-8.909-7.134a24.4,24.4,0,0,0-7.219-1.673,24.147,24.147,0,0,0-3.5-.04c-1.317.083-2.6.393-3.907.511-2.906.262-5.433-1.267-8.2-1.82a21.686,21.686,0,0,0-7.581.007c-6.071.943-11.926,3.447-18.173,3.057a.333.333,0,0,0-.3.5,51.647,51.647,0,0,0,20.635,19.948c1.084.575,2.189.021,3.314.517a5.2,5.2,0,0,0,3.247.662c2.185-.466,2.727-3.653.406-.83-1.175,1.429,5.579-.314,7.378-.911,2.19-.726,4.49-1.822,6.762-2.117a17.548,17.548,0,0,0,5.475-1.661,34.877,34.877,0,0,0,9.421-7.464c1.358-1.405-.6.424.741-1" transform="translate(-213.162 -45.432)" fill="#9c2d40"/>
  </g>
</svg>
