<svg xmlns="http://www.w3.org/2000/svg" width="32.895" height="20.833" viewBox="0 0 32.895 20.833">
  <g id="ico_lip_color05" transform="translate(83 -43.999)">
    <path id="color" d="M123,302.181c-2.311-1.711-5.59-3.269-8.29-1.505a10.848,10.848,0,0,0-2.488,2.911c-.414.556-.788,1.165-1.5,1.167-.831,0-1.491-.952-2.069-1.511a6.628,6.628,0,0,0-7.89-1.321c-3.491,1.709-4.771,4.5-5.8,8.093.025.553,1.023.708,1.195.522h.571c2.1,2.172,3.353,5.165,5.45,7.36,2.171,2.273,1.761,1.681,4.756,2.34,5.954,1.309,12.313.129,16.03-4.947,1.749-2.388,5.575-4.492,4.788-7.553-.753-2.931-2.5-3.886-4.757-5.558" transform="translate(-177.963 -255.9)" fill="#9c2d40"/>
  </g>
</svg>
