<svg xmlns="http://www.w3.org/2000/svg" width="428.684" height="515.666" viewBox="0 0 428.684 515.666"><g transform="translate(66.427 49.958)"><path d="M85.638,70.748s1.88,10.751-2.7,14.922-11.408.944-12.807-.411-2.174-6.169-1.116-6.934,2.7,1.177,2.7,1.177,2.665,3.088,3.756,2.585,1.271-3.029-.7-5.229-7.186-3.567-7.186-3.567-3.673,4.658-7.267,3.567c-2.146-.65-3.856-4.418-5.17-6.579-.7-1.15-1.617-2.1-2.409-1.349s-.1,4.362-1.293,4.362-2.772-1.944-3.646-4.083-.642-3.1.134-4.466,2.763-3.235,8.557-8.4,9.665-6.79,14.787-12.033,5.778-6.441,5.7-8.942-2.652-7.76-8.525-12.417-9.165-5.611-15.2-5.525a33.784,33.784,0,0,0-16.712,5.525c-3.267,2.426-2.215,4.894-1.177,5.537s1.907.991,6.948,2.034,7.667-.812,14.53.651,11.308,3.927,12.92,5.2,2.968,2.074,1.995,3.081-7,3.065-14.045,2.295-9.245-2.347-13.706-4.991-4.175-4.418-4.137-5.587a54.31,54.31,0,0,1,3.055-13.747c2.13-5.264,3.608-6.238,5.464-7.311s5.739-2.59,8.1-1.411S77.056,20.148,79.056,21.338s2.482-.067,2.7-.588.409-6.9-.294-9.341S65.81,1.822,63.312.717s-7.454-.794-10.056,0S47.328,4.4,44.941,7.525s-2.584,2.825-4.6,8.643-.694,8.811-3.481,14.612S33.818,36.556,26.3,44.015,14.579,57.757,12.455,65.891,9.867,78.955,7.189,90.979s-3.7,11.395-5.446,23.007S-.272,131.34.215,137.426s6.386,15.3,12.4,18.564,83.354,30.895,91.59,33.781,11.671,2.954,13.982,2.82,10.261-2.274,16.1-6.169c3.146-2.1,15.195-14.134,27.707-27.139,10.462-10.874,16.29-17.741,27.239-28.116s22.1-3.657,24.314,1-.054,12.292-2.166,15.273S194.627,167.166,186.52,173.8s-14.158,5.238-15.747,3.227-1.171-5.573-5.555-7.046-21.986,24.257-28.133,52.351,8.66,52.214,26.472,60.475,61.051-3.363,76.991-3.363,30.2,3.523,40.63,10.284,24.139,15.724,35.74,42.955,12.272,48.432,9.845,76.389-2.718,23.393-5.875,37.766" transform="translate(-65.218 30.755) rotate(-14)" fill="none" stroke="#1c1c1b" stroke-linecap="round" stroke-width="2"/><path d="M0,18.59C.893,14.519,11.772-2.744,22.736.375c2.516,1.013,4.5,3.251,6.524,3.819,3.883,1.092,2.952.135,4.88.519S42.388,8.126,48.2,17.683c4.438,7.3,9.277,18.525,10.213,23.364.24,1.231.02,2.057-.633,2.124-2.767.286-18.344-22.716-35.04-25.972S2.679,20.322,1.869,22.169c-.22.5-.764,1.88.293,4.524s6.874,6.462,14.517,9.769,17.854,4.507,32.169,5.957" transform="translate(-23.639 105.633) rotate(-14)" fill="none" stroke="#1c1c1b" stroke-width="2"/></g></svg>