<?xml version="1.0" encoding="utf-8"?>
<!-- Generator: Adobe Illustrator 28.0.0, SVG Export Plug-In . SVG Version: 6.00 Build 0)  -->
<svg version="1.1" id="Layer_1" xmlns="http://www.w3.org/2000/svg" xmlns:xlink="http://www.w3.org/1999/xlink" x="0px" y="0px"
	 viewBox="0 0 428.7 515.7" style="enable-background:new 0 0 428.7 515.7;" xml:space="preserve">
<style type="text/css">
	.st0{fill:#DFC9A1;}
	.st1{fill:#DFC9A2;}
</style>
<g transform="translate(22.658 -10.554)">
	<path class="st0" d="M176.8,120c0,0,37.5-4.4-1.6,66.3c-14.9,26.9-19.9,35.6-33.9,43.8c-22.3,13.2-33.5,10.8-60.6,8.2
		s-37.9,0.2-32.1-37.8s3.9-27.9,20.1-63.6s32.6-49.7,39.7-54.1c7.1-4.4,13.1,7.8,33,24.6S176.8,120,176.8,120z"/>
	<path class="st1" d="M67.4,256.1c17.5,3.4,22.6,3.5,45.8,5.7s30-10.7,38.2-6.7c8.1,4,0,26.5,0,26.5s0.2,15.8,6.8,28.4
		s19.8,21.9,19.8,21.9s7.5,10.9,36.1,8.3s50.5-31.2,89-19.4s50.3,28.3,64.8,66.7s-36.7,28.5-78.1-4.2s-77.1,1.7-128.4-17.8
		C125.2,351.8,78.4,327.1,66,310s-21.9-24-21.4-38.8S50,252.7,67.4,256.1z"/>
</g>
</svg>
