<svg xmlns="http://www.w3.org/2000/svg" xmlns:xlink="http://www.w3.org/1999/xlink" width="140.747" height="57" viewBox="0 0 140.747 57">
  <defs>
    <clipPath id="clip-path">
      <rect id="사각형_5" data-name="사각형 5" width="140.747" height="57" fill="#d8d8d8"/>
    </clipPath>
  </defs>
  <g id="foot_logo" transform="translate(0 0)">
    <g id="그룹_1" data-name="그룹 1" transform="translate(0 0)" clip-path="url(#clip-path)">
      <path id="패스_1" data-name="패스 1" d="M3.669,2.267a1.288,1.288,0,0,0-1.179.7H2.467V0H1.253V6.422c0,.447-.023,1.087-.046,1.5H2.249l.069-.687h.034a1.173,1.173,0,0,0,1.1.779c.962,0,1.763-1.008,1.763-2.988,0-1.637-.561-2.76-1.546-2.76m-.492,4.74c-.218,0-.5-.126-.664-.71a1.5,1.5,0,0,1-.046-.355V4.385a1.781,1.781,0,0,1,.046-.355c.069-.366.332-.733.653-.733.6,0,.836.79.836,1.82,0,1.11-.229,1.889-.824,1.889" transform="translate(-0.349 0)" fill="#d8d8d8"/>
      <path id="패스_2" data-name="패스 2" d="M21.736,6.346c-.057.355-.126.721-.184,1.018h-.023c-.057-.32-.1-.652-.183-1.03L20.716,3.3h-1.3l1.477,5.152a.649.649,0,0,1,.034.206.694.694,0,0,1-.068.264,2.614,2.614,0,0,1-.493.778,2.44,2.44,0,0,1-.755.573l.4,1.053a3.051,3.051,0,0,0,1.145-.87,8.735,8.735,0,0,0,1.305-3.171L23.487,3.3h-1.2Z" transform="translate(-5.605 -0.953)" fill="#d8d8d8"/>
      <path id="패스_3" data-name="패스 3" d="M54.219,4.114h-.034l-.069-.847H53.051c.023.469.046,1.053.046,1.568V8.843h1.225V5.9a3.1,3.1,0,0,1,.046-.526,1.1,1.1,0,0,1,.985-.962,1.867,1.867,0,0,1,.263.011V3.21a1.617,1.617,0,0,0-.263-.023,1.322,1.322,0,0,0-1.134.927" transform="translate(-15.319 -0.921)" fill="#d8d8d8"/>
      <path id="패스_4" data-name="패스 4" d="M71.214,3.188c-1.2,0-2.083,1.122-2.083,2.954,0,1.728.767,2.77,2.21,2.77a3.679,3.679,0,0,0,1.408-.263l-.183-.871a2.554,2.554,0,0,1-1,.195c-.652,0-1.236-.344-1.248-1.591h2.622a4.333,4.333,0,0,0,.034-.653c0-1.489-.6-2.541-1.763-2.541m-.893,2.324c.023-.652.263-1.408.8-1.408.435,0,.733.527.721,1.408Z" transform="translate(-19.962 -0.921)" fill="#d8d8d8"/>
      <path id="패스_5" data-name="패스 5" d="M91.126,5.351c0-1.179-.366-2.164-1.809-2.164a3.106,3.106,0,0,0-1.534.4l.229.824a1.982,1.982,0,0,1,1.042-.3c.607,0,.836.4.836.973v.149c-1.26.011-2.473.619-2.473,2.05a1.484,1.484,0,0,0,1.408,1.649A1.375,1.375,0,0,0,90,8.27h.023l.068.573h1.1a8.813,8.813,0,0,1-.069-1.271Zm-1.2,1.74a1.163,1.163,0,0,1-.034.287.732.732,0,0,1-.7.641c-.275,0-.607-.229-.607-.858,0-.974.858-1.1,1.339-1.111Z" transform="translate(-25.243 -0.921)" fill="#d8d8d8"/>
      <path id="패스_6" data-name="패스 6" d="M107.72,5.523c-.528-.344-.665-.515-.665-.824a.57.57,0,0,1,.63-.573,1.42,1.42,0,0,1,.767.24l.24-.9a2.133,2.133,0,0,0-1.065-.275,1.623,1.623,0,0,0-1.7,1.66,1.874,1.874,0,0,0,1.132,1.6c.516.321.676.549.676.893a.613.613,0,0,1-.7.642,1.874,1.874,0,0,1-.962-.3l-.241.9a2.157,2.157,0,0,0,1.191.32,1.649,1.649,0,0,0,1.843-1.706,1.944,1.944,0,0,0-1.144-1.683" transform="translate(-30.56 -0.921)" fill="#d8d8d8"/>
      <path id="패스_7" data-name="패스 7" d="M125.063,3.188c-1.042,0-2.026.87-2.026,2.885,0,1.878.8,2.862,1.98,2.862.848,0,2-.641,2-2.885,0-1.832-.789-2.862-1.957-2.862m0,4.808c-.653,0-.813-1.008-.813-1.946,0-.8.137-1.923.79-1.923.629,0,.767,1.122.767,1.923,0,.847-.137,1.946-.744,1.946" transform="translate(-35.528 -0.921)" fill="#d8d8d8"/>
      <path id="패스_8" data-name="패스 8" d="M144.4,3.187a1.5,1.5,0,0,0-1.316.744h-.023L143,3.267h-1.065c.023.492.046.939.046,1.568V8.843H143.2V5.408a2.082,2.082,0,0,1,.057-.516c.115-.446.39-.676.687-.676.538,0,.652.538.652,1.1V8.843h1.225V5.2c0-1.294-.492-2.015-1.431-2.015" transform="translate(-40.985 -0.921)" fill="#d8d8d8"/>
      <path id="패스_9" data-name="패스 9" d="M39.955,52.9l-6.268-11.11h-5.5l9.242,16.366V69.067h5.014V58.116l9.233-16.326h-5.45Z" transform="translate(-8.139 -12.067)" fill="#d8d8d8"/>
      <path id="패스_10" data-name="패스 10" d="M107.593,52.9l-6.268-11.11h-5.5l9.241,16.366V69.067h5.014V58.116l9.233-16.326h-5.45Z" transform="translate(-27.67 -12.067)" fill="#d8d8d8"/>
      <path id="패스_11" data-name="패스 11" d="M14.521,54.865a6.018,6.018,0,0,0,3.489-5.856c0-4.935-3.009-7.222-8.1-7.222H0V69.066H11.473c5.455,0,8.383-2.808,8.383-7.542a6.282,6.282,0,0,0-5.334-6.659M5.134,46.239H9.265c2.447,0,3.572,1,3.572,3.21,0,2.128-1.2,3.331-3.693,3.331H5.134Zm5.655,18.374H5.134V57.552h5.255c2.807,0,4.132,1.285,4.132,3.651,0,2.126-1.083,3.41-3.732,3.41" transform="translate(0 -12.067)" fill="#d8d8d8"/>
      <path id="패스_12" data-name="패스 12" d="M133.554,46.281h12.539L133.554,64.576v4.491h18.174V64.576H139.19l12.538-18.294V41.789H133.554Z" transform="translate(-38.565 -12.067)" fill="#d8d8d8"/>
      <path id="패스_13" data-name="패스 13" d="M183.692,41.789V60.032L171.057,41.789h-4.413V69.067h5.093v-18.2l12.6,18.2h4.533V41.789Z" transform="translate(-48.12 -12.067)" fill="#d8d8d8"/>
      <path id="패스_14" data-name="패스 14" d="M81.018,58.877a8.049,8.049,0,0,0,4.955-6.858c.04-.328.059-.676.072-1.007a11.23,11.23,0,0,0-.072-1.784c-.56-4.543-3.74-7.438-8.138-7.438H66.444V69.068h5.134V46.281h4.893a4.2,4.2,0,0,1,3.577,1.668,3.643,3.643,0,0,1,.3.538,5.524,5.524,0,0,1,.452,2.137,4.733,4.733,0,0,1-.047.761c-.238,2.2-2.418,3.6-2.769,3.8a7.793,7.793,0,0,1-1.169.612c-2.2.923-1.193,3.415-.408,4.806l.619.974,4.766,7.489h5.817Z" transform="translate(-19.186 -12.068)" fill="#d8d8d8"/>
    </g>
  </g>
</svg>
