<svg xmlns="http://www.w3.org/2000/svg" xmlns:xlink="http://www.w3.org/1999/xlink" width="140.117" height="56.745" viewBox="0 0 140.117 56.745">
  <defs>
    <clipPath id="clip-path">
      <rect id="사각형_41" data-name="사각형 41" width="140.117" height="56.745" fill="#fff"/>
    </clipPath>
  </defs>
  <g id="Logo" transform="translate(-1.148 14)">
    <g id="그룹_25" data-name="그룹 25" transform="translate(1.148 -14)">
      <g id="그룹_24" data-name="그룹 24" clip-path="url(#clip-path)">
        <path id="패스_39" data-name="패스 39" d="M3.987,2.257a1.282,1.282,0,0,0-1.174.695H2.791V0H1.583V6.394c0,.444-.022,1.082-.046,1.493H2.574L2.642,7.2h.034a1.166,1.166,0,0,0,1.094.775c.957,0,1.755-1,1.755-2.974,0-1.63-.559-2.747-1.539-2.747M3.5,6.975c-.217,0-.5-.125-.661-.707a1.482,1.482,0,0,1-.046-.353V4.365a1.757,1.757,0,0,1,.046-.354c.068-.365.33-.729.649-.729.593,0,.832.787.832,1.812,0,1.105-.228,1.88-.821,1.88" transform="translate(-0.683)" fill="#fff"/>
        <path id="패스_40" data-name="패스 40" d="M27.036,7.235c-.057.354-.125.718-.182,1.014h-.023c-.057-.319-.1-.649-.182-1.026L26.022,4.2h-1.3l1.47,5.129a.646.646,0,0,1,.034.205.7.7,0,0,1-.068.262,2.6,2.6,0,0,1-.49.775,2.443,2.443,0,0,1-.752.57l.4,1.048a3.032,3.032,0,0,0,1.14-.866,8.7,8.7,0,0,0,1.3-3.157L28.78,4.2h-1.2Z" transform="translate(-10.978 -1.866)" fill="#fff"/>
        <path id="패스_41" data-name="패스 41" d="M68.728,4.982h-.034l-.069-.843h-1.06c.023.468.046,1.049.046,1.561V9.69h1.22V6.76a3.081,3.081,0,0,1,.046-.524,1.1,1.1,0,0,1,.98-.957,1.891,1.891,0,0,1,.262.011V4.082a1.557,1.557,0,0,0-.262-.023,1.316,1.316,0,0,0-1.129.923" transform="translate(-30.003 -1.802)" fill="#fff"/>
        <path id="패스_42" data-name="패스 42" d="M90.12,4.059c-1.2,0-2.074,1.117-2.074,2.94,0,1.721.764,2.758,2.2,2.758a3.661,3.661,0,0,0,1.4-.262l-.182-.866a2.539,2.539,0,0,1-.992.194c-.649,0-1.23-.342-1.242-1.584h2.61a4.19,4.19,0,0,0,.034-.649c0-1.482-.593-2.53-1.755-2.53m-.889,2.313c.023-.649.262-1.4.8-1.4.433,0,.729.524.718,1.4Z" transform="translate(-39.097 -1.802)" fill="#fff"/>
        <path id="패스_43" data-name="패스 43" d="M115.026,6.214c0-1.174-.365-2.154-1.8-2.154a3.088,3.088,0,0,0-1.527.4l.228.821a1.968,1.968,0,0,1,1.037-.3c.6,0,.832.4.832.969V6.1c-1.254.011-2.462.615-2.462,2.04a1.477,1.477,0,0,0,1.4,1.641,1.368,1.368,0,0,0,1.174-.661h.023l.068.57h1.094a8.877,8.877,0,0,1-.068-1.266Zm-1.2,1.732a1.15,1.15,0,0,1-.034.286.728.728,0,0,1-.695.638c-.274,0-.6-.228-.6-.855,0-.968.855-1.094,1.334-1.106Z" transform="translate(-49.437 -1.803)" fill="#fff"/>
        <path id="패스_44" data-name="패스 44" d="M136.666,6.384c-.524-.342-.661-.513-.661-.821a.567.567,0,0,1,.627-.57,1.412,1.412,0,0,1,.764.239l.239-.9a2.126,2.126,0,0,0-1.06-.274,1.617,1.617,0,0,0-1.7,1.653c0,.569.3,1.094,1.129,1.6.513.319.672.546.672.888a.61.61,0,0,1-.695.638,1.866,1.866,0,0,1-.957-.3l-.24.9a2.144,2.144,0,0,0,1.185.319,1.642,1.642,0,0,0,1.835-1.7,1.936,1.936,0,0,0-1.14-1.676" transform="translate(-59.851 -1.802)" fill="#fff"/>
        <path id="패스_45" data-name="패스 45" d="M158.718,4.059c-1.037,0-2.018.866-2.018,2.872,0,1.869.8,2.849,1.972,2.849.843,0,1.994-.638,1.994-2.872,0-1.824-.786-2.849-1.949-2.849m0,4.787c-.65,0-.809-1-.809-1.937,0-.8.136-1.915.786-1.915.627,0,.764,1.117.764,1.915,0,.843-.137,1.937-.741,1.937" transform="translate(-69.583 -1.802)" fill="#fff"/>
        <path id="패스_46" data-name="패스 46" d="M183.217,4.059a1.49,1.49,0,0,0-1.311.741h-.023l-.057-.661h-1.06c.023.49.046.935.046,1.561V9.689h1.22V6.27a2.077,2.077,0,0,1,.057-.513c.114-.444.387-.672.684-.672.535,0,.649.536.649,1.094v3.51h1.219V6.065c0-1.288-.49-2.006-1.424-2.006" transform="translate(-80.269 -1.802)" fill="#fff"/>
        <path id="패스_47" data-name="패스 47" d="M47.614,64.283l-6.24-11.061H35.9l9.2,16.293V80.379H50.09v-10.9l9.191-16.254H53.855Z" transform="translate(-15.941 -23.633)" fill="#fff"/>
        <path id="패스_48" data-name="패스 48" d="M133.758,64.283l-6.24-11.061h-5.476l9.2,16.293V80.379h4.991v-10.9l9.191-16.254H140Z" transform="translate(-54.193 -23.633)" fill="#fff"/>
        <path id="패스_49" data-name="패스 49" d="M14.457,66.24a5.992,5.992,0,0,0,3.474-5.83c0-4.913-3-7.189-8.069-7.189H0V80.377H11.422c5.431,0,8.345-2.8,8.345-7.509a6.253,6.253,0,0,0-5.31-6.629M5.112,57.652H9.224c2.435,0,3.556,1,3.556,3.2,0,2.118-1.2,3.316-3.676,3.316H5.112Zm5.63,18.292H5.112v-7.03h5.231c2.795,0,4.114,1.28,4.114,3.636,0,2.116-1.078,3.394-3.715,3.394" transform="translate(0 -23.633)" fill="#fff"/>
        <path id="패스_50" data-name="패스 50" d="M170.094,57.694h12.483L170.094,75.907v4.472h18.092V75.907H175.7l12.481-18.212V53.222H170.094Z" transform="translate(-75.53 -23.633)" fill="#fff"/>
        <path id="패스_51" data-name="패스 51" d="M229.209,53.222V71.383L216.631,53.222h-4.394V80.379h5.071V62.258l12.541,18.121h4.513V53.222Z" transform="translate(-94.244 -23.633)" fill="#fff"/>
        <path id="패스_52" data-name="패스 52" d="M99.131,70.233a8.012,8.012,0,0,0,4.933-6.828c.04-.326.059-.673.072-1a11.2,11.2,0,0,0-.072-1.776c-.557-4.523-3.723-7.405-8.1-7.405H84.622V80.379h5.112V57.695H94.6a4.185,4.185,0,0,1,3.561,1.661,3.615,3.615,0,0,1,.3.535,5.485,5.485,0,0,1,.45,2.127,4.578,4.578,0,0,1-.047.758c-.237,2.189-2.407,3.58-2.756,3.784a7.761,7.761,0,0,1-1.164.61c-2.189.919-1.188,3.4-.406,4.784l.617.97L99.9,80.379h5.791Z" transform="translate(-37.576 -23.634)" fill="#fff"/>
      </g>
    </g>
  </g>
</svg>
